<svg xmlns="http://www.w3.org/2000/svg" xmlns:xlink="http://www.w3.org/1999/xlink" id="Layer_1" width="100%" x="0" y="0" enable-background="new 0 0 512 512" version="1.1" viewBox="0 0 512 512" xml:space="preserve"><path fill="#FFCE00" stroke="none" d="M235.000000,1.000000 C249.354233,1.000000 263.708466,1.000000 278.730682,1.378191 C284.980011,2.198864 290.671051,2.097964 296.119720,3.197620 C307.258728,5.445690 318.319336,8.140443 329.318665,11.009763 C349.780151,16.347410 369.129242,24.657139 386.983337,35.809662 C400.091003,43.997326 412.824982,53.117039 424.413147,63.312931 C436.885406,74.286720 448.707520,86.279152 459.227814,99.125542 C474.667450,117.978981 486.545319,139.227081 495.480865,161.989182 C503.838226,183.278580 509.402008,205.276993 511.561462,227.858124 C478.684174,195.112656 446.086914,162.540588 413.433929,130.024506 C411.849579,128.446793 409.775726,127.360687 407.952820,126.036179 C407.975800,126.026695 407.965942,126.074974 407.928864,125.755646 C407.471680,124.983292 407.051544,124.530258 406.366943,123.894363 C386.393127,97.109276 348.232147,99.018463 330.539001,123.967041 C325.892029,121.746162 321.665558,119.414963 317.266724,117.474350 C298.077148,109.008583 278.007416,104.496483 256.575775,104.359100 C242.086533,106.223358 227.771118,107.122299 214.013000,110.377068 C203.031601,112.974953 192.729156,118.442894 181.894745,122.347382 C168.291077,106.126572 149.759872,100.768158 130.073654,107.140167 C110.962303,113.326111 97.742050,134.202667 99.696144,154.268570 C101.075096,168.428589 107.604607,179.402283 118.451920,188.406036 C108.816925,207.890457 103.095535,228.103088 102.523758,249.447952 C102.218491,260.843964 103.538086,272.283508 104.050499,284.121552 C103.692902,285.838623 103.328629,287.125793 103.137009,288.438202 C95.620819,339.916809 88.120338,391.397766 80.366096,442.703949 C68.155922,431.181519 57.263512,418.939972 47.719315,405.444672 C35.240879,387.800385 25.039997,368.998810 17.370644,348.807220 C10.302837,330.199341 5.217550,311.102722 2.964309,291.283875 C2.496371,287.168030 1.664270,283.093536 1.000000,279.000000 C1.000000,264.645782 1.000000,250.291550 1.378191,235.269333 C2.821336,226.654526 3.803487,218.695572 4.966830,210.763184 C8.401990,187.340164 16.197598,165.273819 26.509390,144.106384 C36.142262,124.332603 48.197056,106.130043 62.802479,89.565750 C76.835381,73.650772 92.173912,59.288086 109.477585,47.003620 C127.406258,34.275448 146.707031,24.057247 167.275955,16.457691 C185.174561,9.844732 203.604568,4.977343 222.685547,2.959921 C226.813293,2.523496 230.896362,1.664407 235.000000,1.000000 z" opacity="1"/><path fill="#FFA300" stroke="none" d="M407.929810,126.045654 C409.775726,127.360687 411.849579,128.446793 413.433929,130.024506 C446.086914,162.540588 478.684174,195.112656 511.629272,228.270508 C512.310669,230.911606 512.655334,232.955795 513.000000,235.000000 C513.000000,249.354233 513.000000,263.708466 512.618286,278.725464 C506.609009,343.799316 480.304810,398.244995 433.382111,442.379852 C430.040527,419.430054 426.814423,396.897308 423.544373,374.370911 C420.035889,350.202057 416.524231,326.033508 412.936584,301.876343 C411.376740,291.373138 409.623688,280.898590 407.896301,269.997742 C408.422668,255.121567 408.574158,240.575226 404.831879,226.543060 C401.525787,214.146484 396.788147,202.131683 392.922180,189.695770 C408.622803,178.727020 416.277527,164.100113 413.894043,145.267090 C413.064606,138.713318 409.982880,132.444580 407.929810,126.045654 z" opacity="1"/><path fill="#343A40" stroke="none" d="M407.958374,270.411041 C409.623688,280.898590 411.376740,291.373138 412.936584,301.876343 C416.524231,326.033508 420.035889,350.202057 423.544373,374.370911 C426.814423,396.897308 430.040527,419.430054 433.133057,442.649109 C429.811310,446.199615 426.691376,449.117401 423.465668,451.913086 C404.818451,468.074493 384.194977,481.043640 361.620758,491.092560 C338.935638,501.190887 315.441467,508.069397 290.780731,510.996552 C286.501526,511.504486 282.259308,512.324280 278.000000,513.000000 C271.312347,513.000000 264.624725,513.000000 257.454559,512.531494 C257.005737,478.206268 257.039398,444.349487 257.109253,410.377502 C257.145447,410.262329 257.027588,410.051544 257.484985,410.142395 C281.922119,409.967133 304.542999,404.219116 325.711609,393.018707 C359.192657,375.303711 383.007263,348.819611 397.336426,313.718628 C403.028229,299.775848 405.633514,285.144196 407.958374,270.411041 z" opacity="1"/><path fill="#565B66" stroke="none" d="M257.073059,410.492706 C257.039398,444.349487 257.005737,478.206268 256.986023,512.531494 C249.979050,513.000000 242.958099,513.000000 235.276886,512.615967 C222.035034,510.268677 209.310822,508.949890 196.902664,506.203186 C173.709457,501.069153 151.790588,492.362305 131.151459,480.493042 C112.812294,469.946442 95.545235,457.992584 80.617813,442.878387 C88.120338,391.397766 95.620819,339.916809 103.137009,288.438202 C103.328629,287.125793 103.692902,285.838623 104.262695,284.464783 C108.213425,304.782501 115.586548,323.756714 127.067101,340.981598 C147.973511,372.348602 176.507523,393.511292 212.743301,404.251434 C227.235336,408.546844 242.083130,409.931396 257.073059,410.492706 z" opacity="1"/><path fill="#FFF" stroke="none" d="M278.468658,513.000000 C282.259308,512.324280 286.501526,511.504486 290.780731,510.996552 C315.441467,508.069397 338.935638,501.190887 361.620758,491.092560 C384.194977,481.043640 404.818451,468.074493 423.465668,451.913086 C426.691376,449.117401 429.811310,446.199615 433.229187,443.068970 C480.304810,398.244995 506.609009,343.799316 512.618286,279.194092 C513.000000,356.927185 513.000000,434.854370 513.000000,513.000000 C434.979248,513.000000 356.958282,513.000000 278.468658,513.000000 z" opacity="1"/><path fill="#FFF" stroke="none" d="M234.531342,1.000000 C230.896362,1.664407 226.813293,2.523496 222.685547,2.959921 C203.604568,4.977343 185.174561,9.844732 167.275955,16.457691 C146.707031,24.057247 127.406258,34.275448 109.477585,47.003620 C92.173912,59.288086 76.835381,73.650772 62.802479,89.565750 C48.197056,106.130043 36.142262,124.332603 26.509390,144.106384 C16.197598,165.273819 8.401990,187.340164 4.966830,210.763184 C3.803487,218.695572 2.821336,226.654526 1.378191,234.800674 C1.000000,157.072952 1.000000,79.145912 1.000000,1.000000 C78.687424,1.000000 156.375061,1.000000 234.531342,1.000000 z" opacity="1"/><path fill="#FFF" stroke="none" d="M513.000000,234.531342 C512.655334,232.955795 512.310669,230.911606 511.898193,228.455032 C509.402008,205.276993 503.838226,183.278580 495.480865,161.989182 C486.545319,139.227081 474.667450,117.978981 459.227814,99.125542 C448.707520,86.279152 436.885406,74.286720 424.413147,63.312931 C412.824982,53.117039 400.091003,43.997326 386.983337,35.809662 C369.129242,24.657139 349.780151,16.347410 329.318665,11.009763 C318.319336,8.140443 307.258728,5.445690 296.119720,3.197620 C290.671051,2.097964 284.980011,2.198864 279.199341,1.378191 C356.927032,1.000000 434.854095,1.000000 513.000000,1.000000 C513.000000,78.687424 513.000000,156.375061 513.000000,234.531342 z" opacity="1"/><path fill="#FFF" stroke="none" d="M80.366104,442.703949 C95.545235,457.992584 112.812294,469.946442 131.151459,480.493042 C151.790588,492.362305 173.709457,501.069153 196.902664,506.203186 C209.310822,508.949890 222.035034,510.268677 234.808319,512.615967 C157.072968,513.000000 79.145927,513.000000 1.000000,513.000000 C1.000000,435.312561 1.000000,357.624939 1.000000,279.468658 C1.664270,283.093536 2.496371,287.168030 2.964309,291.283875 C5.217550,311.102722 10.302837,330.199341 17.370644,348.807220 C25.039997,368.998810 35.240879,387.800385 47.719315,405.444672 C57.263512,418.939972 68.155922,431.181519 80.366104,442.703949 z" opacity="1"/><path fill="#FFFFFE" stroke="none" d="M257.109253,410.377502 C242.083130,409.931396 227.235336,408.546844 212.743301,404.251434 C176.507523,393.511292 147.973511,372.348602 127.067101,340.981598 C115.586548,323.756714 108.213425,304.782501 104.336533,284.046661 C103.538086,272.283508 102.218491,260.843964 102.523758,249.447952 C103.095535,228.103088 108.816925,207.890457 118.629288,188.144623 C122.621208,181.021301 126.310608,174.520264 130.327225,167.924652 C141.444901,156.800797 152.235367,145.771561 163.351898,134.686127 C169.827087,130.632263 175.976212,126.634567 182.125336,122.636887 C192.729156,118.442894 203.031601,112.974953 214.013000,110.377068 C227.771118,107.122299 242.086533,106.223358 256.576904,104.800926 C257.009674,165.145432 257.026917,224.996582 256.590332,284.975952 C251.647308,285.247192 247.118195,285.062744 242.677536,285.604034 C234.437393,286.608459 228.260544,292.546753 226.954483,300.140991 C225.537506,308.380188 228.878738,316.188965 236.489487,319.733765 C243.067581,322.797607 250.173279,324.728699 257.033875,327.618988 C257.023865,355.402161 257.025726,382.726837 257.027588,410.051544 C257.027588,410.051544 257.145447,410.262329 257.109253,410.377502 M167.575897,285.107635 C176.609680,285.419403 184.999557,283.183594 192.999420,279.028748 C216.934494,266.597748 222.705139,235.984299 204.841583,215.824921 C189.464981,198.472092 160.485138,195.034668 141.495468,208.311188 C123.915184,220.602341 117.357727,240.220993 125.745743,258.506134 C133.623138,275.678192 148.059128,283.811157 167.575897,285.107635 z" opacity="1"/><path fill="#F2F6FB" stroke="none" d="M257.484985,410.142395 C257.025726,382.726837 257.023865,355.402161 257.077057,327.494202 C257.132141,326.910950 256.954834,326.715179 257.349915,326.803772 C264.564728,324.491089 271.610535,322.577820 278.140869,319.552063 C284.740936,316.493958 288.419281,308.541718 287.445526,301.788757 C286.266235,293.610443 281.895813,287.719299 273.731506,286.065735 C268.310486,284.967773 262.558594,285.503235 257.046570,285.206085 C257.138336,285.104614 257.044189,284.847748 257.044189,284.847748 C257.026917,224.996582 257.009674,165.145432 256.991272,104.852448 C278.007416,104.496483 298.077148,109.008583 317.266724,117.474350 C321.665558,119.414963 325.892029,121.746162 330.721191,124.261490 C337.480835,128.574219 343.717163,132.523041 350.010315,136.781891 C362.138306,147.039261 372.611420,158.478409 381.942932,171.425385 C385.607208,177.815674 389.144867,183.882004 392.682556,189.948334 C396.788147,202.131683 401.525787,214.146484 404.831879,226.543060 C408.574158,240.575226 408.422668,255.121567 407.896301,269.997742 C405.633514,285.144196 403.028229,299.775848 397.336426,313.718628 C383.007263,348.819611 359.192657,375.303711 325.711609,393.018707 C304.542999,404.219116 281.922119,409.967133 257.484985,410.142395 M305.875610,265.563660 C321.496704,285.835236 348.420715,291.121979 370.632233,278.279083 C391.327820,266.312714 398.084015,240.994049 384.989044,221.066864 C374.086884,204.476593 357.707245,198.530640 338.289795,200.844177 C306.630615,204.616287 287.563812,237.673904 305.875610,265.563660 z" opacity="1"/><path fill="#353B40" stroke="none" d="M349.953491,136.471878 C343.717163,132.523041 337.480835,128.574219 331.062317,124.330933 C348.232147,99.018463 386.393127,97.109276 406.462463,124.192917 C407.203613,125.141212 407.584778,125.608086 407.965942,126.074966 C407.965942,126.074974 407.975800,126.026695 407.952820,126.036179 C409.982880,132.444580 413.064606,138.713318 413.894043,145.267090 C416.277527,164.100113 408.622803,178.727020 392.922180,189.695770 C389.144867,183.882004 385.607208,177.815674 382.109680,171.118927 C396.626862,159.569427 394.597992,140.222519 383.057281,131.429947 C372.504883,123.390335 355.658295,125.822632 349.953491,136.471878 z" opacity="1"/><path fill="#575C66" stroke="none" d="M130.000015,168.019241 C126.310608,174.520264 122.621208,181.021301 118.754440,187.783768 C107.604607,179.402283 101.075096,168.428589 99.696144,154.268570 C97.742050,134.202667 110.962303,113.326111 130.073654,107.140167 C149.759872,100.768158 168.291077,106.126572 181.894745,122.347382 C175.976212,126.634567 169.827087,130.632263 163.245880,134.373413 C151.811493,123.447655 136.067581,124.248192 126.585915,135.778641 C118.378105,145.759949 121.188911,163.373215 130.000015,168.019241 z" opacity="1"/><path fill="#FFA300" stroke="none" d="M407.928864,125.755646 C407.584778,125.608086 407.203613,125.141212 406.726929,124.375778 C407.051544,124.530258 407.471680,124.983292 407.928864,125.755646 z" opacity="1"/><path fill="#7F8697" stroke="none" d="M167.102509,285.082092 C148.059128,283.811157 133.623138,275.678192 125.745743,258.506134 C117.357727,240.220993 123.915184,220.602341 141.495468,208.311188 C160.485138,195.034668 189.464981,198.472092 204.841583,215.824921 C222.705139,235.984299 216.934494,266.597748 192.999420,279.028748 C184.999557,283.183594 176.609680,285.419403 167.102509,285.082092 M162.149368,241.243774 C168.157623,247.493240 175.369003,248.539749 181.855347,244.103485 C187.373779,240.329163 189.591354,232.873734 186.982422,226.866226 C183.542175,218.944458 174.549637,215.510941 166.954025,219.218979 C159.122925,223.041962 156.893570,232.189774 162.149368,241.243774 z" opacity="1"/><path fill="#575C67" stroke="none" d="M257.088928,327.035736 C250.173279,324.728699 243.067581,322.797607 236.489487,319.733765 C228.878738,316.188965 225.537506,308.380188 226.954483,300.140991 C228.260544,292.546753 234.437393,286.608459 242.677536,285.604034 C247.118195,285.062744 251.647308,285.247192 256.590332,284.975952 C257.044189,284.847748 257.138336,285.104614 257.059052,285.654846 C256.971466,299.708435 256.963135,313.211823 256.954834,326.715179 C256.954834,326.715179 257.132141,326.910950 257.088928,327.035736 z" opacity="1"/><path fill="#AFB4C8" stroke="none" d="M130.327225,167.924652 C121.188911,163.373215 118.378105,145.759949 126.585915,135.778641 C136.067581,124.248192 151.811493,123.447655 162.919800,134.429596 C152.235367,145.771561 141.444901,156.800797 130.327225,167.924652 z" opacity="1"/><path fill="#71788A" stroke="none" d="M305.678467,265.261169 C287.563812,237.673904 306.630615,204.616287 338.289795,200.844177 C357.707245,198.530640 374.086884,204.476593 384.989044,221.066864 C398.084015,240.994049 391.327820,266.312714 370.632233,278.279083 C348.420715,291.121979 321.496704,285.835236 305.678467,265.261169 M354.315552,236.448807 C355.881958,229.141724 353.555115,223.091125 347.862366,219.668365 C343.240631,216.889572 335.952057,217.269394 331.894958,220.500488 C326.741547,224.604706 324.780914,230.489655 326.592102,236.417236 C328.401855,242.340073 333.560333,246.735977 339.772736,246.759674 C346.466248,246.785202 351.524139,243.712311 354.315552,236.448807 z" opacity="1"/><path fill="#9196AA" stroke="none" d="M350.010315,136.781891 C355.658295,125.822632 372.504883,123.390335 383.057281,131.429947 C394.597992,140.222519 396.626862,159.569427 381.983093,170.794983 C372.611420,158.478409 362.138306,147.039261 350.010315,136.781891 z" opacity="1"/><path fill="#343A41" stroke="none" d="M257.349915,326.803772 C256.963135,313.211823 256.971466,299.708435 256.967285,285.756317 C262.558594,285.503235 268.310486,284.967773 273.731506,286.065735 C281.895813,287.719299 286.266235,293.610443 287.445526,301.788757 C288.419281,308.541718 284.740936,316.493958 278.140869,319.552063 C271.610535,322.577820 264.564728,324.491089 257.349915,326.803772 z" opacity="1"/><path fill="#565B67" stroke="none" d="M161.945251,240.926529 C156.893570,232.189774 159.122925,223.041962 166.954025,219.218979 C174.549637,215.510941 183.542175,218.944458 186.982422,226.866226 C189.591354,232.873734 187.373779,240.329163 181.855347,244.103485 C175.369003,248.539749 168.157623,247.493240 161.945251,240.926529 z" opacity="1"/><path fill="#343A41" stroke="none" d="M354.193787,236.828339 C351.524139,243.712311 346.466248,246.785202 339.772736,246.759674 C333.560333,246.735977 328.401855,242.340073 326.592102,236.417236 C324.780914,230.489655 326.741547,224.604706 331.894958,220.500488 C335.952057,217.269394 343.240631,216.889572 347.862366,219.668365 C353.555115,223.091125 355.881958,229.141724 354.193787,236.828339 z" opacity="1"/></svg>